<mxfile host="app.diagrams.net" modified="2023-11-02T15:59:17.423Z" agent="Mozilla/5.0 (Windows NT 10.0; Win64; x64) AppleWebKit/537.36 (KHTML, like Gecko) Chrome/118.0.0.0 Safari/537.36" etag="ITbeeY32xP6-aQ_GTUOB" version="22.0.8" type="device">
  <diagram name="Page-1" id="zfwpHKQ8b02sX2Z5w1rh">
    <mxGraphModel dx="2284" dy="750" grid="1" gridSize="10" guides="1" tooltips="1" connect="1" arrows="1" fold="1" page="1" pageScale="1" pageWidth="850" pageHeight="1100" math="0" shadow="0">
      <root>
        <mxCell id="0" />
        <mxCell id="1" parent="0" />
        <mxCell id="blDmOoH5m_tCQgDSLebW-3" value="1-Request Pr&lt;br&gt;2-Fail Pr" style="html=1;dashed=0;whiteSpace=wrap;fillColor=#dae8fc;strokeColor=#6c8ebf;fontStyle=1;fontSize=14;" vertex="1" parent="1">
          <mxGeometry x="10" y="200" width="130" height="160" as="geometry" />
        </mxCell>
        <mxCell id="blDmOoH5m_tCQgDSLebW-4" value="1-Check Sonar&lt;br&gt;2-Clean Sonar" style="html=1;dashed=0;whiteSpace=wrap;fillColor=#d5e8d4;strokeColor=#82b366;fontStyle=1;fontSize=14;" vertex="1" parent="1">
          <mxGeometry x="240" y="200" width="130" height="160" as="geometry" />
        </mxCell>
        <mxCell id="blDmOoH5m_tCQgDSLebW-5" value="1-Build Success&lt;br&gt;2-Clean Build" style="html=1;dashed=0;whiteSpace=wrap;fillColor=#f8cecc;strokeColor=#b85450;fontStyle=1;fontSize=14;" vertex="1" parent="1">
          <mxGeometry x="460" y="200" width="130" height="160" as="geometry" />
        </mxCell>
        <mxCell id="blDmOoH5m_tCQgDSLebW-6" value="1-Complete Task&lt;br&gt;2-Fail Task" style="html=1;dashed=0;whiteSpace=wrap;fillColor=#e1d5e7;strokeColor=#9673a6;fontStyle=1;fontSize=14;" vertex="1" parent="1">
          <mxGeometry x="680" y="200" width="120" height="160" as="geometry" />
        </mxCell>
        <mxCell id="blDmOoH5m_tCQgDSLebW-7" value="Devs" style="shape=umlActor;verticalLabelPosition=bottom;verticalAlign=top;html=1;outlineConnect=0;fillColor=#f8cecc;strokeColor=#b85450;" vertex="1" parent="1">
          <mxGeometry x="-100" y="250" width="30" height="60" as="geometry" />
        </mxCell>
        <mxCell id="blDmOoH5m_tCQgDSLebW-8" value="" style="endArrow=classic;html=1;rounded=0;exitX=0.5;exitY=0.5;exitDx=0;exitDy=0;exitPerimeter=0;entryX=0;entryY=0.5;entryDx=0;entryDy=0;" edge="1" parent="1" source="blDmOoH5m_tCQgDSLebW-7" target="blDmOoH5m_tCQgDSLebW-3">
          <mxGeometry width="50" height="50" relative="1" as="geometry">
            <mxPoint x="400" y="310" as="sourcePoint" />
            <mxPoint x="450" y="260" as="targetPoint" />
          </mxGeometry>
        </mxCell>
        <mxCell id="blDmOoH5m_tCQgDSLebW-10" value="RequestPr" style="edgeLabel;html=1;align=center;verticalAlign=middle;resizable=0;points=[];" vertex="1" connectable="0" parent="blDmOoH5m_tCQgDSLebW-8">
          <mxGeometry x="-0.0947" relative="1" as="geometry">
            <mxPoint as="offset" />
          </mxGeometry>
        </mxCell>
        <mxCell id="blDmOoH5m_tCQgDSLebW-11" value="" style="endArrow=classic;html=1;rounded=0;exitX=1;exitY=0.25;exitDx=0;exitDy=0;entryX=0;entryY=0.25;entryDx=0;entryDy=0;" edge="1" parent="1" source="blDmOoH5m_tCQgDSLebW-3" target="blDmOoH5m_tCQgDSLebW-4">
          <mxGeometry width="50" height="50" relative="1" as="geometry">
            <mxPoint x="400" y="310" as="sourcePoint" />
            <mxPoint x="450" y="260" as="targetPoint" />
          </mxGeometry>
        </mxCell>
        <mxCell id="blDmOoH5m_tCQgDSLebW-19" value="CheckSonar" style="edgeLabel;html=1;align=center;verticalAlign=middle;resizable=0;points=[];fontStyle=1;fontSize=14;fontColor=#009900;" vertex="1" connectable="0" parent="blDmOoH5m_tCQgDSLebW-11">
          <mxGeometry x="-0.1111" y="5" relative="1" as="geometry">
            <mxPoint y="-5" as="offset" />
          </mxGeometry>
        </mxCell>
        <mxCell id="blDmOoH5m_tCQgDSLebW-12" value="Build" style="endArrow=classic;html=1;rounded=0;entryX=0;entryY=0.25;entryDx=0;entryDy=0;fontStyle=1;fontSize=14;exitX=1;exitY=0.25;exitDx=0;exitDy=0;fontColor=#009900;" edge="1" parent="1" source="blDmOoH5m_tCQgDSLebW-4" target="blDmOoH5m_tCQgDSLebW-5">
          <mxGeometry x="0.1111" y="10" width="50" height="50" relative="1" as="geometry">
            <mxPoint x="370" y="220" as="sourcePoint" />
            <mxPoint x="250" y="230" as="targetPoint" />
            <mxPoint as="offset" />
          </mxGeometry>
        </mxCell>
        <mxCell id="blDmOoH5m_tCQgDSLebW-14" value="" style="endArrow=classic;html=1;rounded=0;entryX=0;entryY=0.25;entryDx=0;entryDy=0;exitX=1;exitY=0.25;exitDx=0;exitDy=0;" edge="1" parent="1" source="blDmOoH5m_tCQgDSLebW-5" target="blDmOoH5m_tCQgDSLebW-6">
          <mxGeometry width="50" height="50" relative="1" as="geometry">
            <mxPoint x="590" y="220" as="sourcePoint" />
            <mxPoint x="670" y="220" as="targetPoint" />
          </mxGeometry>
        </mxCell>
        <mxCell id="blDmOoH5m_tCQgDSLebW-21" value="Complete" style="edgeLabel;html=1;align=center;verticalAlign=middle;resizable=0;points=[];fontStyle=1;fontSize=14;fontColor=#009900;" vertex="1" connectable="0" parent="blDmOoH5m_tCQgDSLebW-14">
          <mxGeometry x="-0.0444" y="-1" relative="1" as="geometry">
            <mxPoint y="-11" as="offset" />
          </mxGeometry>
        </mxCell>
        <mxCell id="blDmOoH5m_tCQgDSLebW-15" value="Fail" style="endArrow=classic;html=1;rounded=0;exitX=0;exitY=0.75;exitDx=0;exitDy=0;entryX=1;entryY=0.75;entryDx=0;entryDy=0;fontStyle=1;fontSize=14;fontColor=#FF0000;" edge="1" parent="1" source="blDmOoH5m_tCQgDSLebW-6" target="blDmOoH5m_tCQgDSLebW-5">
          <mxGeometry width="50" height="50" relative="1" as="geometry">
            <mxPoint x="400" y="310" as="sourcePoint" />
            <mxPoint x="590" y="260" as="targetPoint" />
          </mxGeometry>
        </mxCell>
        <mxCell id="blDmOoH5m_tCQgDSLebW-16" value="" style="endArrow=classic;html=1;rounded=0;entryX=1;entryY=0.75;entryDx=0;entryDy=0;exitX=0;exitY=0.75;exitDx=0;exitDy=0;" edge="1" parent="1" source="blDmOoH5m_tCQgDSLebW-5" target="blDmOoH5m_tCQgDSLebW-4">
          <mxGeometry width="50" height="50" relative="1" as="geometry">
            <mxPoint x="460" y="260" as="sourcePoint" />
            <mxPoint x="600" y="270" as="targetPoint" />
          </mxGeometry>
        </mxCell>
        <mxCell id="blDmOoH5m_tCQgDSLebW-22" value="Fail" style="edgeLabel;html=1;align=center;verticalAlign=middle;resizable=0;points=[];fontStyle=1;fontSize=14;fontColor=#FF0000;" vertex="1" connectable="0" parent="blDmOoH5m_tCQgDSLebW-16">
          <mxGeometry x="0.0222" y="2" relative="1" as="geometry">
            <mxPoint as="offset" />
          </mxGeometry>
        </mxCell>
        <mxCell id="blDmOoH5m_tCQgDSLebW-17" value="" style="endArrow=classic;html=1;rounded=0;entryX=1;entryY=0.75;entryDx=0;entryDy=0;exitX=0;exitY=0.75;exitDx=0;exitDy=0;" edge="1" parent="1" source="blDmOoH5m_tCQgDSLebW-4" target="blDmOoH5m_tCQgDSLebW-3">
          <mxGeometry width="50" height="50" relative="1" as="geometry">
            <mxPoint x="240" y="270" as="sourcePoint" />
            <mxPoint x="150" y="270" as="targetPoint" />
          </mxGeometry>
        </mxCell>
        <mxCell id="blDmOoH5m_tCQgDSLebW-23" value="Fail" style="edgeLabel;html=1;align=center;verticalAlign=middle;resizable=0;points=[];fontStyle=1;fontSize=14;fontColor=#FF0000;" vertex="1" connectable="0" parent="blDmOoH5m_tCQgDSLebW-17">
          <mxGeometry x="-0.1333" y="-1" relative="1" as="geometry">
            <mxPoint as="offset" />
          </mxGeometry>
        </mxCell>
        <mxCell id="blDmOoH5m_tCQgDSLebW-24" value="Orchestrator Ms" style="text;html=1;strokeColor=#d79b00;fillColor=#ffe6cc;align=center;verticalAlign=middle;whiteSpace=wrap;rounded=0;fontSize=12;fontFamily=Helvetica;fontStyle=1;labelBackgroundColor=none;labelBorderColor=none;fontColor=#000000;" vertex="1" parent="1">
          <mxGeometry x="10" y="170" width="130" height="30" as="geometry" />
        </mxCell>
        <mxCell id="blDmOoH5m_tCQgDSLebW-25" value="Sonar Ms" style="text;html=1;strokeColor=#d79b00;fillColor=#ffe6cc;align=center;verticalAlign=middle;whiteSpace=wrap;rounded=0;fontSize=12;fontFamily=Helvetica;fontStyle=1;labelBackgroundColor=none;labelBorderColor=none;fontColor=#000000;" vertex="1" parent="1">
          <mxGeometry x="240" y="170" width="130" height="30" as="geometry" />
        </mxCell>
        <mxCell id="blDmOoH5m_tCQgDSLebW-26" value="Build Ms" style="text;html=1;strokeColor=#d79b00;fillColor=#ffe6cc;align=center;verticalAlign=middle;whiteSpace=wrap;rounded=0;fontSize=12;fontFamily=Helvetica;fontStyle=1;labelBackgroundColor=none;labelBorderColor=none;fontColor=#000000;" vertex="1" parent="1">
          <mxGeometry x="460" y="170" width="130" height="30" as="geometry" />
        </mxCell>
        <mxCell id="blDmOoH5m_tCQgDSLebW-27" value="Jira Ms" style="text;html=1;strokeColor=#d79b00;fillColor=#ffe6cc;align=center;verticalAlign=middle;whiteSpace=wrap;rounded=0;fontSize=12;fontFamily=Helvetica;fontStyle=1;labelBackgroundColor=none;labelBorderColor=none;fontColor=#000000;" vertex="1" parent="1">
          <mxGeometry x="680" y="170" width="120" height="30" as="geometry" />
        </mxCell>
      </root>
    </mxGraphModel>
  </diagram>
</mxfile>
